{"title":"Killing.Season.2013.WEBrip x264 Ac3-MiLLENiUM [PublicHash]","uid":8715275,"size":1317539721,"categoryP":"video","categoryS":"movies","magnet":"?xt=urn:btih:baf4460cfcaa1844726b2ae37a5888b486550742&amp;dn=Killing.Season.2013.WEBrip+x264+Ac3-MiLLENiUM+%5BPublicHash%5D&amp;tr=udp%3A%2F%2Ftracker.openbittorrent.com%3A80&amp;tr=udp%3A%2F%2Fopen.demonii.com%3A1337&amp;tr=udp%3A%2F%2Ftracker.coppersurfer.tk%3A6969&amp;tr=udp%3A%2F%2Fexodus.desync.com%3A6969","seeders":1,"leechers":0,"uploader":"R0thschild","files":8,"time":1374318131,"description":"              ***********************************************\n\n                PublicHash - Largest Bittorrent Community\n      \n                         &lt;a href=&quot; http://publichash.com/&quot; rel=&quot;nofollow&quot; target=&quot;_NEW&quot;&gt; http://publichash.com/&lt;/a&gt;\n\n          Crystal Clean files - Fast Speed! No Virus! No Fake! Enjoy!\n    \n              ***********************************************\nKilling.Season.2013.WEBrip x264 Ac3-MiLLENiUM [PublicHash]\n\nKilling Season (2013)\n90 min  -  Action | Thriller  -  12 July 2013 (USA)\nIMDB rating: 5.7\n\nTwo veterans of the Bosnian War -- one American, one Serbian -- find their unlikely friendship turn tense with one of them reveals their true intentions.\n\nDirector: Mark Steven Johnson\nWriter: Evan Daugherty\n\nScreens: &lt;a href=&quot;\nhttp://imgsure.com/?p=835682&quot; rel=&quot;nofollow&quot; target=&quot;_NEW&quot;&gt;\nhttp://imgsure.com/?p=835682&lt;/a&gt; &lt;a href=&quot;\nhttp://imgsure.com/?p=731734&quot; rel=&quot;nofollow&quot; target=&quot;_NEW&quot;&gt;\nhttp://imgsure.com/?p=731734&lt;/a&gt; &lt;a href=&quot;\nhttp://imgsure.com/?p=772767&quot; rel=&quot;nofollow&quot; target=&quot;_NEW&quot;&gt;\nhttp://imgsure.com/?p=772767&lt;/a&gt; &lt;a href=&quot;\nhttp://imgsure.com/?p=447814&quot; rel=&quot;nofollow&quot; target=&quot;_NEW&quot;&gt;\nhttp://imgsure.com/?p=447814&lt;/a&gt;\n\nGeneralUnique ID                                : 211841699563918156703299151815932893761 \n                                              (0x9F5F3A2E1AD446CAB20D17A27DB3DA41)\nComplete name                            : killing.season.2013.WEBrip x264 Ac3-MiLLENiUM.mkv\nSource                                   : 720pWEBDL [Thanks]\nFormat                                   : Matroska\nFormat version                           : Version 4 / Version 2\nFile size                                : 1.20 GiB\nDuration                                 : 1h 30mn\nOverall bit rate mode                    : Variable\nOverall bit rate                         : 1 898 Kbps\nEncoded date                             : UTC 2013-07-19 22:10:39\nWriting application                      : mkvmerge v6.3.0 ('You can't stop me!'wink.gif \n                                                    built on Jun 28 2013 20:09:41\nWriting library                          : libebml v1.3.0 + libmatroska v1.4.0\n\nVideo\nID                                       : 2\nFormat                                   : AVC\nFormat/Info                              : Advanced Video Codec\nFormat profile                           : &lt;a class=&quot;__cf_email__&quot; href=&quot;/cdn-cgi/l/email-protection&quot; data-cfemail=&quot;7c34151b143c3048524d&quot;&gt;[email&amp;#160;protected]&lt;/a&gt;&lt;script cf-hash='f9e31' type=&quot;text/javascript&quot;&gt;\n/* &lt;![CDATA[ */!function(){try{var t=&quot;currentScript&quot;in document?document.currentScript:function(){for(var t=document.getElementsByTagName(&quot;script&quot;),e=t.length;e--;)if(t[e].getAttribute(&quot;cf-hash&quot;))return t[e]}();if(t&amp;&amp;t.previousSibling){var e,r,n,i,c=t.previousSibling,a=c.getAttribute(&quot;data-cfemail&quot;);if(a){for(e=&quot;&quot;,r=parseInt(a.substr(0,2),16),n=2;a.length-n;n+=2)i=parseInt(a.substr(n,2),16)^r,e+=String.fromCharCode(i);e=document.createTextNode(e),c.parentNode.replaceChild(e,c)}}}catch(u){}}();/* ]]&gt; */&lt;/script&gt;\nFormat settings, CABAC                   : Yes\nFormat settings, ReFrames                : 3 frames\nCodec ID                                 : V_MPEG4/ISO/AVC\nDuration                                 : 1h 30mn\nBit rate mode                            : Variable\nBit rate                                 : 1 510 Kbps\nMaximum bit rate                         : 40.0 Mbps\nWidth                                    : 720 pixels\nHeight                                   : 304 pixels\nDisplay aspect ratio                     : 2.35:1\nFrame rate                               : 23.976 fps\nColor space                              : YUV\nChroma subsampling                       : 4:2:0\nBit depth                                : 8 bits\nScan type                                : Progressive\nBits/(Pixel*Frame)                       : 0.288\nStream size                              : 958 MiB (78%)\nWriting library                          : x264 core 135 r2345 f0c1c53\n\nLanguage                                 : English\nDefault                                  : Yes\nForced                                   : No\nColor primaries                          : BT.709-5, BT.1361, IEC 61966-2-4, SMPTE RP177\nTransfer characteristics                 : BT.709-5, BT.1361\nMatrix coefficients                      : BT.709-5, BT.1361, IEC 61966-2-4 709, SMPTE RP177\n\nAudio\nID                                       : 1\nFormat                                   : AC-3\nFormat/Info                              : Audio Coding 3\nMode extension                           : CM (complete main)\nCodec ID                                 : A_AC3\nDuration                                 : 1h 30mn\nBit rate mode                            : Constant\nBit rate                                 : 384 Kbps\nChannel(s)                               : 6 channels\nChannel positions                        : Front: L C R, Side: L R, LFE\nSampling rate                            : 48.0 KHz\nBit depth                                : 16 bits\nCompression mode                         : Lossy\nStream size                              : 249 MiB (20%)\nDefault                                  : Yes\nForced                                   : No\n\nIMDB: http://www.imdb.com/title/tt1480295/","torrent":{"xt":"urn:btih:baf4460cfcaa1844726b2ae37a5888b486550742","amp;dn":"Killing.Season.2013.WEBrip+x264+Ac3-MiLLENiUM+%5BPublicHash%5D","amp;tr":["udp%3A%2F%2Ftracker.openbittorrent.com%3A80","udp%3A%2F%2Fopen.demonii.com%3A1337","udp%3A%2F%2Ftracker.coppersurfer.tk%3A6969","udp%3A%2F%2Fexodus.desync.com%3A6969"],"infoHash":"baf4460cfcaa1844726b2ae37a5888b486550742","infoHashBuffer":{"type":"Buffer","data":[186,244,70,12,252,170,24,68,114,107,42,227,122,88,136,180,134,85,7,66]},"announce":[],"urlList":[]}}